<svg width="50" height="60" viewBox="0 0 50 60" fill="none" xmlns="http://www.w3.org/2000/svg">
<g clip-path="url(#clip0_2266_953)">
<path d="M25.9416 0.00165093L2 53.7985L9.70941 42.2212C15.6037 54.6471 26.2532 53.4605 26.2532 53.4605C36.6792 52.3056 41.2812 42.4994 41.2812 42.4994L48.7706 54.3672L25.9416 0.00165093ZM22.6969 49.3655C14.9101 48.4958 10.6319 41.7811 10.6319 41.7811C15.0703 33.9115 23.0068 34.0681 23.0068 34.0681C17.998 36.253 17.7164 40.7547 17.7164 40.7547C17.1195 46.5926 22.6969 49.3655 22.6969 49.3655ZM16.0157 32.6932L25.8166 18.0208L35.0066 32.5998C25.1494 26.4732 16.0157 32.6932 16.0157 32.6932ZM28.3324 49.3655C28.3324 49.3655 33.9345 46.5926 33.3394 40.7547C33.3394 40.7547 33.0542 36.253 28.0419 34.0681C28.0419 34.0681 36.0154 33.9115 40.4291 41.7811C40.4291 41.7811 36.1422 48.4958 28.3324 49.3655Z" fill="white"/>
<path d="M12.1878 58.7772C12.1878 58.5659 12.1085 58.3881 11.9483 58.2473C11.7899 58.1047 11.5082 57.9867 11.1033 57.8899C10.6138 57.7737 10.2318 57.5994 9.95715 57.3723C9.68251 57.1452 9.54695 56.86 9.54695 56.5167C9.54695 56.1557 9.69307 55.8529 9.9906 55.61C10.2846 55.3688 10.6684 55.2473 11.1385 55.2473C11.6438 55.2473 12.0469 55.3864 12.348 55.6628C12.6473 55.9427 12.7934 56.2631 12.7811 56.6293L12.774 56.6505H12.1772C12.1772 56.3793 12.0874 56.1593 11.9096 55.992C11.73 55.823 11.473 55.7403 11.1385 55.7403C10.8269 55.7403 10.5874 55.8107 10.4219 55.9533C10.2547 56.0924 10.1719 56.2755 10.1719 56.5026C10.1719 56.7033 10.2617 56.8723 10.4413 57.0061C10.6226 57.1417 10.9149 57.2614 11.3181 57.36C11.8057 57.4832 12.1772 57.6592 12.4325 57.8952C12.686 58.1311 12.8128 58.4233 12.8128 58.7684C12.8128 59.1416 12.6613 59.4427 12.3568 59.6698C12.0504 59.8951 11.6508 60.0078 11.1614 60.0078C10.6983 60.0078 10.2899 59.8828 9.93603 59.6311C9.5804 59.3811 9.40786 59.0448 9.41843 58.6258L9.42547 58.6064H10.0223C10.0223 58.904 10.1332 59.1293 10.3515 59.2842C10.5681 59.4392 10.8374 59.5166 11.1614 59.5166C11.4747 59.5166 11.7265 59.4497 11.9114 59.3177C12.0944 59.1839 12.1878 59.0043 12.1878 58.7772Z" fill="white"/>
<path d="M14.2891 59.9375H13.6641V56.4974H14.2891V59.9375ZM14.2891 55.6171H13.6641V54.9798H14.2891V55.6171Z" fill="white"/>
<path d="M15.8099 56.4974L15.8539 57.0097C15.9665 56.8266 16.1109 56.684 16.2834 56.5854C16.456 56.4851 16.6532 56.434 16.8732 56.434C17.2429 56.434 17.5317 56.5432 17.7359 56.7597C17.9383 56.9763 18.0405 57.3125 18.0405 57.7668V59.9375H17.4137V57.7791C17.4137 57.4763 17.3538 57.2615 17.2341 57.133C17.1144 57.0062 16.9313 56.9428 16.6866 56.9428C16.5053 56.9428 16.3468 56.9851 16.2077 57.0731C16.0687 57.1611 15.9595 57.2791 15.8768 57.4287V59.9375H15.25V56.4974H15.8099Z" fill="white"/>
<path d="M20.3448 59.5166C20.5525 59.5166 20.7356 59.4532 20.8941 59.3247C21.0525 59.1944 21.1317 59.0395 21.1317 58.8529H21.6934L21.7004 58.8723C21.7092 59.168 21.5772 59.4304 21.3025 59.6627C21.0296 59.8934 20.711 60.0078 20.3448 60.0078C19.8465 60.0078 19.4627 59.8458 19.1987 59.5201C18.9328 59.1927 18.8008 58.7842 18.8008 58.2895V58.1557C18.8008 57.6663 18.9328 57.2578 19.2004 56.9304C19.4663 56.6029 19.8483 56.4392 20.3448 56.4392C20.7479 56.4392 21.0772 56.5572 21.3324 56.7966C21.5895 57.0343 21.711 57.3247 21.7022 57.6698L21.6969 57.6892H21.1317C21.1317 57.4797 21.056 57.3001 20.9082 57.154C20.7603 57.0043 20.5719 56.9321 20.3448 56.9321C20.0156 56.9321 19.7832 57.0519 19.6423 57.286C19.5015 57.5219 19.4293 57.8107 19.4293 58.1557V58.2878C19.4293 58.6399 19.4997 58.9321 19.6406 59.1663C19.7796 59.4004 20.0156 59.5166 20.3448 59.5166Z" fill="white"/>
<path d="M23.7374 56.9321C23.5279 56.9321 23.3484 57.0219 23.2005 57.1945C23.0508 57.3723 22.961 57.5941 22.9276 57.86L22.9329 57.8758H24.5191V57.7931C24.5191 57.5501 24.454 57.3441 24.3237 57.1786C24.1917 57.0149 23.9962 56.9321 23.7374 56.9321ZM23.8325 60.0078C23.3536 60.0078 22.9734 59.8494 22.6899 59.5307C22.4082 59.212 22.2656 58.7983 22.2656 58.2895V58.1487C22.2656 57.6592 22.4118 57.2526 22.704 56.9269C22.9945 56.6029 23.3396 56.4392 23.7374 56.4392C24.2022 56.4392 24.5526 56.58 24.7902 56.8582C25.0262 57.1381 25.1459 57.5114 25.1459 57.9779V58.3687H22.9153L22.9047 58.3846C22.9117 58.7156 22.9962 58.9849 23.1565 59.1962C23.3167 59.4092 23.542 59.5166 23.8325 59.5166C24.0455 59.5166 24.2322 59.4849 24.3924 59.4251C24.5508 59.3652 24.6899 59.2825 24.8043 59.1751L25.0508 59.5835C24.9276 59.705 24.7656 59.8071 24.5631 59.8881C24.3624 59.9691 24.1195 60.0078 23.8325 60.0078Z" fill="white"/>
<path d="M29.1737 59.9375H28.5505V55.9199L27.6016 55.9323V55.4816L29.1737 55.309V59.9375Z" fill="white"/>
<path d="M32.3952 57.8987C32.6276 57.8987 32.8195 57.8494 32.9727 57.749C33.1276 57.6487 33.2385 57.5219 33.3054 57.3688V56.9691C33.3054 56.5642 33.228 56.2579 33.0713 56.0501C32.9163 55.8441 32.6875 55.7403 32.3899 55.7403C32.1611 55.7403 31.9674 55.8424 31.8054 56.0466C31.6435 56.2491 31.5625 56.5131 31.5625 56.8318C31.5625 57.1487 31.6382 57.4075 31.7861 57.6029C31.9357 57.8001 32.1382 57.8987 32.3952 57.8987ZM32.2966 59.5166C32.603 59.5166 32.8477 59.4022 33.029 59.1716C33.2139 58.9409 33.3054 58.5976 33.3054 58.1434V57.9339C33.2016 58.0835 33.0713 58.198 32.9163 58.2754C32.7597 58.3529 32.5871 58.3916 32.3952 58.3916C31.9481 58.3916 31.5942 58.2526 31.3319 57.9761C31.0678 57.6997 30.9375 57.3195 30.9375 56.8353C30.9375 56.3688 31.0766 55.9903 31.3547 55.6927C31.6329 55.3952 31.9727 55.2473 32.3706 55.2473C32.853 55.2473 33.235 55.3987 33.5149 55.6998C33.7913 56.0026 33.9304 56.4462 33.9304 57.0343V58.1381C33.9304 58.742 33.779 59.2032 33.478 59.5272C33.1751 59.8476 32.7825 60.0078 32.2966 60.0078C32.1347 60.0078 31.9692 59.9937 31.8002 59.962C31.6312 59.9303 31.4797 59.8846 31.3477 59.8194L31.4428 59.337C31.566 59.4022 31.6981 59.4497 31.8319 59.4761C31.9674 59.5025 32.1223 59.5166 32.2966 59.5166Z" fill="white"/>
<path d="M34.8968 57.8529L35.1644 55.3142H37.483V55.8705H35.6961L35.5429 57.1698C35.6415 57.0976 35.7471 57.036 35.8686 56.9902C35.9883 56.9409 36.1257 56.9181 36.2823 56.9128C36.7084 56.9075 37.0447 57.0466 37.2894 57.3283C37.5341 57.61 37.6556 57.9885 37.6556 58.4673C37.6556 58.9304 37.5323 59.3036 37.2823 59.5835C37.0341 59.8687 36.6714 60.0078 36.1943 60.0078C35.8035 60.0078 35.476 59.9004 35.2155 59.6874C34.9549 59.4744 34.8299 59.1592 34.8405 58.7437L34.8475 58.7244H35.4126C35.4126 58.9744 35.4848 59.1698 35.6309 59.3071C35.7753 59.4462 35.9619 59.5149 36.1943 59.5149C36.4602 59.5149 36.6644 59.4233 36.8105 59.2349C36.9566 59.0501 37.0306 58.7948 37.0306 58.4726C37.0306 58.1751 36.9566 57.9321 36.807 57.742C36.6591 57.5501 36.4566 57.455 36.1943 57.455C35.9496 57.455 35.77 57.4938 35.6609 57.5659C35.55 57.6416 35.469 57.7543 35.4179 57.9057L34.8968 57.8529Z" fill="white"/>
<path d="M39.9363 57.3353C39.7233 57.3353 39.5402 57.3776 39.3906 57.4656C39.2409 57.5519 39.1265 57.6663 39.0473 57.8107V58.1839C39.0473 58.6117 39.1388 58.9392 39.3166 59.1698C39.498 59.4004 39.7233 59.5149 39.9944 59.5149C40.2515 59.5149 40.4504 59.4075 40.5948 59.1909C40.7374 58.9744 40.8096 58.7033 40.8096 58.3828C40.8096 58.0765 40.7321 57.8265 40.5772 57.6293C40.424 57.4339 40.211 57.3353 39.9363 57.3353ZM40.1494 55.2455C40.3096 55.2455 40.4662 55.2649 40.6229 55.3019C40.7796 55.3371 40.9081 55.3829 41.0085 55.4374L40.8747 55.9163C40.7726 55.8635 40.6634 55.8212 40.5508 55.7878C40.4363 55.7561 40.3025 55.7403 40.1494 55.7403C39.8219 55.7403 39.5525 55.8723 39.3518 56.1364C39.1494 56.4022 39.0473 56.7473 39.0473 57.1733V57.2455C39.1828 57.1276 39.3377 57.0343 39.5138 56.9674C39.6881 56.9005 39.8765 56.867 40.0772 56.867C40.4909 56.867 40.8201 57.0096 41.0666 57.2966C41.3113 57.5835 41.4363 57.9462 41.4363 58.3846C41.4363 58.8617 41.3025 59.2525 41.0419 59.5554C40.7796 59.8582 40.431 60.0078 39.9944 60.0078C39.5402 60.0078 39.167 59.8441 38.8712 59.5149C38.5737 59.1874 38.4258 58.7244 38.4258 58.1258V57.242C38.4258 56.6487 38.5895 56.1681 38.9205 55.8001C39.2515 55.4304 39.6617 55.2455 40.1494 55.2455Z" fill="white"/>
</g>
<defs>
<clipPath id="clip0_2266_953">
<rect width="50" height="60" fill="white"/>
</clipPath>
</defs>
</svg>
