<svg width="136" height="60" viewBox="0 0 136 60" fill="none" xmlns="http://www.w3.org/2000/svg">
<g clip-path="url(#clip0_2265_920)">
<path d="M68.6895 0.00209567L49.668 42.7435L55.7931 33.5454C60.4761 43.4177 68.9371 42.475 68.9371 42.475C77.2204 41.5574 80.8768 33.7664 80.8768 33.7664L86.827 43.1953L68.6895 0.00209567ZM66.1116 39.2215C59.925 38.5305 56.526 33.1957 56.526 33.1957C60.0522 26.9433 66.3578 27.0678 66.3578 27.0678C62.3784 28.8036 62.1546 32.3802 62.1546 32.3802C61.6804 37.0185 66.1116 39.2215 66.1116 39.2215ZM60.8034 25.9754L68.5902 14.3182L75.8916 25.9012C68.0601 21.0336 60.8034 25.9754 60.8034 25.9754ZM70.589 39.2215C70.589 39.2215 75.0398 37.0185 74.567 32.3802C74.567 32.3802 74.3404 28.8036 70.3582 27.0678C70.3582 27.0678 76.6931 26.9433 80.1998 33.1957C80.1998 33.1957 76.7938 38.5305 70.589 39.2215Z" fill="white"/>
<path d="M57.7631 46.702C57.7631 46.5341 57.7001 46.3928 57.5729 46.2809C57.447 46.1676 57.2232 46.0739 56.9015 45.997C56.5126 45.9047 56.2091 45.7662 55.9909 45.5858C55.7727 45.4053 55.665 45.1787 55.665 44.906C55.665 44.6192 55.7811 44.3787 56.0175 44.1856C56.251 43.994 56.556 43.8975 56.9294 43.8975C57.3309 43.8975 57.6512 44.008 57.8904 44.2276C58.1282 44.45 58.2443 44.7046 58.2345 44.9955L58.2289 45.0123H57.7547C57.7547 44.7969 57.6834 44.622 57.5421 44.4892C57.3994 44.3549 57.1952 44.2891 56.9294 44.2891C56.6819 44.2891 56.4916 44.3451 56.3601 44.4584C56.2273 44.5689 56.1615 44.7143 56.1615 44.8948C56.1615 45.0542 56.2329 45.1885 56.3755 45.2948C56.5196 45.4025 56.7518 45.4976 57.0721 45.576C57.4596 45.6739 57.7547 45.8138 57.9575 46.0012C58.1589 46.1886 58.2596 46.4208 58.2596 46.695C58.2596 46.9915 58.1393 47.2307 57.8974 47.4111C57.654 47.5902 57.3365 47.6797 56.9476 47.6797C56.5798 47.6797 56.2552 47.5804 55.9741 47.3804C55.6915 47.1817 55.5545 46.9146 55.5629 46.5817L55.5685 46.5663H56.0426C56.0426 46.8027 56.1308 46.9817 56.3042 47.1048C56.4762 47.2279 56.6903 47.2894 56.9476 47.2894C57.1966 47.2894 57.3966 47.2363 57.5435 47.1314C57.689 47.0251 57.7631 46.8824 57.7631 46.702Z" fill="white"/>
<path d="M59.4302 47.625H58.9336V44.8919H59.4302V47.625ZM59.4302 44.1925H58.9336V43.6861H59.4302V44.1925Z" fill="white"/>
<path d="M60.6401 44.8919L60.6751 45.2989C60.7646 45.1534 60.8793 45.0401 61.0164 44.9618C61.1535 44.8821 61.3101 44.8415 61.485 44.8415C61.7787 44.8415 62.0081 44.9282 62.1703 45.1003C62.3312 45.2723 62.4123 45.5395 62.4123 45.9003V47.625H61.9144V45.9101C61.9144 45.6696 61.8668 45.4989 61.7717 45.3968C61.6766 45.2961 61.5311 45.2457 61.3367 45.2457C61.1926 45.2457 61.0667 45.2793 60.9562 45.3492C60.8457 45.4192 60.759 45.5129 60.6933 45.6318V47.625H60.1953V44.8919H60.6401Z" fill="white"/>
<path d="M64.2423 47.2894C64.4074 47.2894 64.5528 47.2391 64.6787 47.137C64.8046 47.0335 64.8676 46.9104 64.8676 46.7621H65.3138L65.3194 46.7775C65.3264 47.0125 65.2214 47.2209 65.0032 47.4055C64.7864 47.5888 64.5333 47.6797 64.2423 47.6797C63.8465 47.6797 63.5416 47.551 63.3317 47.2922C63.1205 47.0321 63.0156 46.7076 63.0156 46.3145V46.2082C63.0156 45.8194 63.1205 45.4948 63.3331 45.2347C63.5444 44.9745 63.8479 44.8444 64.2423 44.8444C64.5626 44.8444 64.8242 44.9381 65.027 45.1284C65.2312 45.3172 65.3277 45.548 65.3208 45.8222L65.3166 45.8375H64.8676C64.8676 45.6711 64.8074 45.5284 64.6899 45.4123C64.5724 45.2934 64.4228 45.2361 64.2423 45.2361C63.9808 45.2361 63.7961 45.3312 63.6842 45.5172C63.5723 45.7047 63.515 45.9341 63.515 46.2082V46.3131C63.515 46.5929 63.5709 46.8251 63.6828 47.0111C63.7933 47.1971 63.9808 47.2894 64.2423 47.2894Z" fill="white"/>
<path d="M66.9389 45.2361C66.7724 45.2361 66.6298 45.3074 66.5123 45.4445C66.3934 45.5858 66.322 45.762 66.2955 45.9732L66.2997 45.9858H67.5599V45.9201C67.5599 45.727 67.5082 45.5634 67.4047 45.4319C67.2998 45.3018 67.1445 45.2361 66.9389 45.2361ZM67.0144 47.6797C66.634 47.6797 66.3318 47.5538 66.1066 47.3006C65.8828 47.0475 65.7695 46.7188 65.7695 46.3145V46.2026C65.7695 45.8138 65.8856 45.4907 66.1178 45.2319C66.3486 44.9745 66.6228 44.8444 66.9389 44.8444C67.3081 44.8444 67.5865 44.9563 67.7753 45.1773C67.9628 45.3997 68.0579 45.6963 68.0579 46.0669V46.3775H66.2857L66.2773 46.39C66.2829 46.653 66.35 46.867 66.4773 47.0349C66.6046 47.2041 66.7836 47.2894 67.0144 47.2894C67.1837 47.2894 67.3319 47.2643 67.4592 47.2167C67.5851 47.1691 67.6956 47.1034 67.7865 47.0181L67.9823 47.3426C67.8844 47.4391 67.7557 47.5202 67.5949 47.5846C67.4354 47.6489 67.2424 47.6797 67.0144 47.6797Z" fill="white"/>
<path d="M71.2569 47.625H70.7617V44.4331L70.0078 44.4429V44.0848L71.2569 43.9477V47.625Z" fill="white"/>
<path d="M73.8144 46.004C73.999 46.004 74.1515 45.9648 74.2732 45.8851C74.3963 45.8054 74.4844 45.7047 74.5376 45.583V45.2655C74.5376 44.9437 74.476 44.7004 74.3515 44.5353C74.2284 44.3717 74.0466 44.2891 73.8102 44.2891C73.6284 44.2891 73.4745 44.3703 73.3458 44.5325C73.2171 44.6934 73.1528 44.9032 73.1528 45.1564C73.1528 45.4081 73.213 45.6137 73.3304 45.769C73.4493 45.9257 73.6102 46.004 73.8144 46.004ZM73.7361 47.2894C73.9795 47.2894 74.1739 47.1985 74.318 47.0153C74.4648 46.832 74.5376 46.5593 74.5376 46.1984V46.032C74.455 46.1509 74.3515 46.2418 74.2284 46.3033C74.104 46.3649 73.9669 46.3956 73.8144 46.3956C73.4591 46.3956 73.178 46.2851 72.9696 46.0655C72.7598 45.8459 72.6562 45.5438 72.6562 45.1592C72.6562 44.7885 72.7668 44.4878 72.9878 44.2514C73.2088 44.015 73.4787 43.8975 73.7948 43.8975C74.1781 43.8975 74.4816 44.0178 74.704 44.257C74.9236 44.4975 75.0341 44.85 75.0341 45.3172V46.1942C75.0341 46.674 74.9138 47.0405 74.6746 47.2978C74.4341 47.5524 74.1221 47.6797 73.7361 47.6797C73.6074 47.6797 73.4759 47.6685 73.3416 47.6433C73.2074 47.6181 73.0871 47.5818 72.9822 47.53L73.0577 47.1468C73.1556 47.1985 73.2605 47.2363 73.3668 47.2573C73.4745 47.2782 73.5976 47.2894 73.7361 47.2894Z" fill="white"/>
<path d="M75.8031 45.9676L76.0157 43.9506H77.8578V44.3926H76.4381L76.3164 45.4249C76.3947 45.3676 76.4787 45.3186 76.5752 45.2822C76.6703 45.2431 76.7794 45.2249 76.9039 45.2207C77.2424 45.2165 77.5095 45.327 77.704 45.5508C77.8984 45.7746 77.9949 46.0753 77.9949 46.4558C77.9949 46.8237 77.897 47.1202 77.6984 47.3426C77.5011 47.5692 77.213 47.6797 76.8339 47.6797C76.5234 47.6797 76.2632 47.5944 76.0562 47.4251C75.8492 47.2559 75.7499 47.0055 75.7583 46.6754L75.7639 46.66H76.2129C76.2129 46.8586 76.2702 47.0139 76.3863 47.123C76.501 47.2335 76.6493 47.288 76.8339 47.288C77.0451 47.288 77.2074 47.2153 77.3235 47.0656C77.4396 46.9188 77.4983 46.716 77.4983 46.46C77.4983 46.2236 77.4396 46.0306 77.3207 45.8795C77.2032 45.727 77.0424 45.6515 76.8339 45.6515C76.6395 45.6515 76.4968 45.6823 76.4101 45.7396C76.322 45.7998 76.2577 45.8893 76.2171 46.0096L75.8031 45.9676Z" fill="white"/>
<path d="M79.8095 45.5564C79.6402 45.5564 79.4948 45.59 79.3759 45.6599C79.257 45.7284 79.1661 45.8194 79.1031 45.9341V46.2306C79.1031 46.5705 79.1759 46.8306 79.3171 47.0139C79.4612 47.1971 79.6402 47.288 79.8557 47.288C80.0599 47.288 80.2179 47.2027 80.3326 47.0307C80.4459 46.8586 80.5033 46.6432 80.5033 46.3886C80.5033 46.1453 80.4417 45.9466 80.3186 45.79C80.1969 45.6347 80.0277 45.5564 79.8095 45.5564ZM79.9787 43.8961C80.106 43.8961 80.2305 43.9115 80.355 43.9408C80.4795 43.9688 80.5816 44.0052 80.6613 44.0485L80.555 44.429C80.4739 44.387 80.3872 44.3535 80.2977 44.3269C80.2067 44.3017 80.1004 44.2891 79.9787 44.2891C79.7186 44.2891 79.5046 44.394 79.3451 44.6038C79.1843 44.8151 79.1031 45.0892 79.1031 45.4277V45.4851C79.2108 45.3913 79.3339 45.3172 79.4738 45.2641C79.6123 45.2109 79.7619 45.1843 79.9214 45.1843C80.2501 45.1843 80.5117 45.2976 80.7075 45.5256C80.9019 45.7536 81.0012 46.0418 81.0012 46.39C81.0012 46.7691 80.8949 47.0796 80.6879 47.3202C80.4795 47.5608 80.2025 47.6797 79.8557 47.6797C79.4948 47.6797 79.1982 47.5496 78.9633 47.288C78.7269 47.0279 78.6094 46.66 78.6094 46.1844V45.4823C78.6094 45.0109 78.7395 44.629 79.0024 44.3367C79.2654 44.043 79.5913 43.8961 79.9787 43.8961Z" fill="white"/>
<path d="M3.44651 56.4855C3.32342 55.4322 3.20033 54.13 3.07724 52.5802C2.83106 54.3608 2.6758 55.6616 2.61285 56.4855H3.44651ZM4.72776 50.5086L6.10971 59.8047H3.63953L3.50805 58.1332H2.64363L2.49956 59.8047H0L1.23369 50.5086H4.72776Z" fill="white"/>
<path d="M9.29203 52.099V58.2143C9.64172 58.2143 9.85432 58.1444 9.93545 58.0059C10.0166 57.8646 10.0557 57.4856 10.0557 56.8645V53.253C10.0557 52.8319 10.0418 52.562 10.0166 52.4431C9.9886 52.3242 9.92706 52.2389 9.83195 52.1829C9.73543 52.1284 9.55639 52.099 9.29203 52.099ZM6.875 50.5086H8.68358C9.85013 50.5086 10.6404 50.5618 11.0516 50.6709C11.4643 50.7772 11.7762 50.9534 11.9916 51.1968C12.2056 51.443 12.3399 51.7158 12.393 52.0151C12.4462 52.3158 12.4742 52.9075 12.4742 53.7873V57.0436C12.4742 57.8786 12.4336 58.4353 12.3553 58.7165C12.277 58.999 12.1399 59.2186 11.9454 59.3781C11.7496 59.5361 11.5076 59.6466 11.2209 59.7096C10.9342 59.7725 10.5019 59.8047 9.92426 59.8047H6.875V50.5086Z" fill="white"/>
<path d="M19.4704 50.5086L18.2409 59.8047H14.5692L13.1719 50.5086H15.7204C16.0169 53.0697 16.2295 55.2364 16.354 57.0086C16.4799 55.2168 16.6128 53.6264 16.7541 52.2375L16.9205 50.5086H19.4704Z" fill="white"/>
<path d="M20.2227 50.5086H24.2538V52.369H22.6397V54.1314H24.1503V55.8994H22.6397V57.9444H24.4147V59.8047H20.2227V50.5086Z" fill="white"/>
<path d="M27.8662 52.099V54.1664C28.1376 54.1664 28.3292 54.1286 28.4369 54.0531C28.546 53.9803 28.602 53.7383 28.602 53.3285V52.8166C28.602 52.5228 28.5488 52.3284 28.4439 52.2375C28.3376 52.1452 28.146 52.099 27.8662 52.099ZM25.4492 50.5086H27.1599C28.3013 50.5086 29.0734 50.5534 29.4776 50.6415C29.8804 50.7296 30.2091 50.9548 30.4651 51.3143C30.7197 51.678 30.847 52.2543 30.847 53.0474C30.847 53.7691 30.7561 54.2559 30.577 54.5048C30.3966 54.7538 30.0427 54.9035 29.514 54.9524C29.9937 55.0727 30.3141 55.2308 30.4791 55.4294C30.6442 55.628 30.7463 55.8113 30.7868 55.9777C30.826 56.1456 30.847 56.603 30.847 57.3541V59.8047H28.602V56.7163C28.602 56.2183 28.5628 55.9106 28.4831 55.7917C28.4048 55.6728 28.1991 55.6141 27.8662 55.6141V59.8047H25.4492V50.5086Z" fill="white"/>
<path d="M37.0057 50.5086V52.369H35.5706V59.8047H33.1536V52.369H31.7227V50.5086H37.0057Z" fill="white"/>
<path d="M40.3233 59.8047H37.9062V50.5086H40.3233V59.8047Z" fill="white"/>
<path d="M46.7597 53.3302H44.5147V52.6406C44.5147 52.3189 44.4854 52.1147 44.428 52.0266C44.3707 51.9385 44.2756 51.8951 44.1413 51.8951C43.9958 51.8951 43.8853 51.9538 43.8112 52.0727C43.737 52.1916 43.6993 52.3707 43.6993 52.6127C43.6993 52.9232 43.7412 53.1568 43.8252 53.3134C43.9049 53.4715 44.1329 53.6603 44.5077 53.8827C45.5834 54.5205 46.2632 55.0451 46.5415 55.4549C46.8213 55.8647 46.9611 56.5235 46.9611 57.4355C46.9611 58.0971 46.8828 58.5853 46.7289 58.8986C46.5737 59.2133 46.273 59.4763 45.8296 59.6889C45.3848 59.9015 44.8672 60.0078 44.2783 60.0078C43.6321 60.0078 43.081 59.8861 42.6222 59.6399C42.1648 59.3952 41.8641 59.0832 41.7228 58.7042C41.583 58.3251 41.5116 57.788 41.5116 57.09V56.4816H43.7566V57.6146C43.7566 57.9628 43.7874 58.1852 43.8503 58.286C43.9133 58.3839 44.0266 58.4342 44.1874 58.4342C44.3483 58.4342 44.4672 58.3713 44.5455 58.2454C44.6238 58.1181 44.6644 57.9307 44.6644 57.6817C44.6644 57.1348 44.5889 56.7767 44.4392 56.6089C44.2867 56.4396 43.9091 56.1585 43.309 55.764C42.7076 55.3668 42.3103 55.0772 42.1145 54.8968C41.9201 54.7178 41.7564 54.4674 41.6291 54.1513C41.5004 53.8324 41.4375 53.4267 41.4375 52.9344C41.4375 52.221 41.5284 51.7007 41.7103 51.372C41.8921 51.0419 42.1844 50.7859 42.5915 50.5999C42.9971 50.4138 43.4867 50.3215 44.0601 50.3215C44.6882 50.3215 45.2239 50.4222 45.6659 50.625C46.1079 50.8279 46.4002 51.0838 46.5443 51.3915C46.6884 51.7007 46.7597 52.2238 46.7597 52.9623V53.3302Z" fill="white"/>
<path d="M50.4756 59.8047H48.0586V50.5086H50.4756V59.8047Z" fill="white"/>
<path d="M57.1893 50.5086V59.8047H55.0702L53.8142 55.5791V59.8047H51.793V50.5086H53.8142L55.1681 54.6937V50.5086H57.1893Z" fill="white"/>
<path d="M64.0574 53.9373H61.6403V53.0924C61.6403 52.5623 61.6166 52.228 61.5718 52.0937C61.5256 51.9608 61.4165 51.8937 61.2431 51.8937C61.0948 51.8937 60.9941 51.951 60.9396 52.0657C60.8864 52.1804 60.8584 52.4756 60.8584 52.9497V57.4103C60.8584 57.8286 60.8864 58.1041 60.9396 58.2356C60.9941 58.3685 61.1004 58.4342 61.2613 58.4342C61.4375 58.4342 61.5564 58.3587 61.6194 58.2104C61.6837 58.0608 61.7145 57.7684 61.7145 57.3376V56.2354H61.2277V54.8213H64.0574V59.8106H62.5383L62.3145 59.1462C62.1509 59.4329 61.9425 59.6483 61.6921 59.7924C61.4403 59.9351 61.1438 60.0078 60.8039 60.0078C60.3969 60.0078 60.0164 59.9085 59.6625 59.7113C59.3086 59.5141 59.0387 59.2707 58.8554 58.9783C58.6708 58.6874 58.5561 58.3839 58.5113 58.0622C58.4652 57.7432 58.4414 57.2635 58.4414 56.6256V53.8617C58.4414 52.9763 58.4904 52.3301 58.5855 51.9273C58.6806 51.5258 58.9561 51.158 59.4093 50.8223C59.8639 50.4866 60.45 50.3201 61.1704 50.3201C61.8781 50.3201 62.4656 50.467 62.9314 50.7565C63.3986 51.0489 63.7035 51.3929 63.8448 51.793C63.9874 52.193 64.0574 52.7735 64.0574 53.5358V53.9373Z" fill="white"/>
<path d="M73.3922 54.5625H70.9737V52.947C70.9737 52.4784 70.95 52.1846 70.8982 52.0685C70.8464 51.951 70.7331 51.8937 70.5569 51.8937C70.3569 51.8937 70.2296 51.965 70.1764 52.1049C70.1233 52.2476 70.0981 52.5525 70.0981 53.0239V57.3418C70.0981 57.795 70.1233 58.0887 70.1764 58.2258C70.2296 58.3643 70.3513 58.4342 70.5387 58.4342C70.7192 58.4342 70.8367 58.3643 70.8926 58.2258C70.9472 58.0887 70.9737 57.7642 70.9737 57.2537V56.0843H73.3922V56.448C73.3922 57.4089 73.325 58.0901 73.1879 58.4944C73.0537 58.8972 72.7529 59.2497 72.2872 59.5518C71.8228 59.8553 71.2493 60.0078 70.5667 60.0078C69.8603 60.0078 69.2771 59.8791 68.8169 59.6218C68.3567 59.3658 68.0532 59.0105 67.9035 58.5559C67.7552 58.1027 67.6797 57.4215 67.6797 56.5096V53.7932C67.6797 53.1246 67.7035 52.621 67.7482 52.2867C67.7944 51.951 67.9315 51.6293 68.1581 51.3202C68.3861 51.0097 68.7022 50.7635 69.1064 50.5859C69.5106 50.4082 69.975 50.3201 70.4996 50.3201C71.2101 50.3201 71.7976 50.4572 72.2606 50.7327C72.725 51.0069 73.0285 51.351 73.1754 51.7622C73.3194 52.172 73.3922 52.8127 73.3922 53.6799V54.5625Z" fill="white"/>
<path d="M77.0278 50.5086V57.9444H78.4979V59.8047H74.6094V50.5086H77.0278Z" fill="white"/>
<path d="M84.9213 50.5159V56.7278C84.9213 57.4327 84.8961 57.9279 84.8513 58.2132C84.8066 58.4986 84.6695 58.7909 84.4443 59.0916C84.2177 59.3924 83.9198 59.6204 83.5505 59.7742C83.1812 59.9295 82.7462 60.0078 82.2441 60.0078C81.6888 60.0078 81.1992 59.9155 80.774 59.7323C80.3488 59.5476 80.0312 59.3084 79.8214 59.0133C79.6102 58.7196 79.4857 58.409 79.448 58.0803C79.4102 57.753 79.3906 57.0663 79.3906 56.0172V50.5159H81.8077V57.4859C81.8077 57.8915 81.83 58.1517 81.8734 58.265C81.9196 58.3769 82.0077 58.4342 82.142 58.4342C82.2944 58.4342 82.3923 58.3713 82.4371 58.2468C82.4818 58.1223 82.5028 57.83 82.5028 57.3656V50.5159H84.9213Z" fill="white"/>
<path d="M88.6255 55.6141V58.2143C88.9654 58.2045 89.1808 58.15 89.2759 58.0549C89.3696 57.9583 89.4171 57.7234 89.4171 57.3485V56.4799C89.4171 56.0826 89.3752 55.842 89.2913 55.7581C89.2059 55.6728 88.9849 55.6252 88.6255 55.6141ZM88.6255 52.099V54.1663C88.7276 54.1636 88.8087 54.1608 88.866 54.1608C89.1038 54.1608 89.2549 54.1034 89.3192 53.9859C89.385 53.8684 89.4171 53.5355 89.4171 52.9844C89.4171 52.6935 89.3906 52.4907 89.3374 52.3732C89.2829 52.2557 89.2129 52.1829 89.1276 52.1508C89.0409 52.1214 88.8744 52.1032 88.6255 52.099ZM86.207 50.51H88.6185C89.3808 50.51 89.9571 50.5688 90.3487 50.6877C90.7432 50.8052 91.0593 51.0458 91.2999 51.4066C91.5418 51.7689 91.6621 52.3508 91.6621 53.1537C91.6621 53.6978 91.5768 54.0754 91.4062 54.2908C91.2355 54.5048 90.8998 54.6699 90.3991 54.7832C90.9572 54.9105 91.3362 55.1189 91.5362 55.4126C91.7363 55.705 91.8356 56.1554 91.8356 56.7596V57.6226C91.8356 58.2507 91.7614 58.7165 91.6202 59.0186C91.4761 59.3207 91.2467 59.5277 90.9334 59.6396C90.6201 59.7501 89.9766 59.8047 89.0031 59.8047H86.207V50.51Z" fill="white"/>
<path d="M102.917 50.5086V59.8047H100.802L100.799 53.5285L99.9582 59.8047H98.4587L97.5733 53.6726L97.5705 59.8047H95.457V50.5086H98.5846C98.6783 51.0667 98.7735 51.7255 98.8714 52.4851L99.2155 54.8503L99.7708 50.5086H102.917Z" fill="white"/>
<path d="M107.138 56.4855C107.015 55.4322 106.892 54.13 106.769 52.5802C106.524 54.3608 106.369 55.6616 106.306 56.4855H107.138ZM108.419 50.5086L109.8 59.8047H107.331L107.201 58.1332H106.336L106.191 59.8047H103.691L104.925 50.5086H108.419Z" fill="white"/>
<path d="M112.981 52.099V58.2143C113.329 58.2143 113.543 58.1444 113.624 58.0059C113.705 57.8646 113.745 57.4856 113.745 56.8645V53.253C113.745 52.8319 113.731 52.562 113.705 52.4431C113.678 52.3242 113.616 52.2389 113.521 52.1829C113.424 52.1284 113.244 52.099 112.981 52.099ZM110.562 50.5086H112.371C113.539 50.5086 114.329 50.5618 114.742 50.6709C115.153 50.7772 115.465 50.9534 115.681 51.1968C115.893 51.443 116.029 51.7158 116.083 52.0151C116.135 52.3158 116.162 52.9075 116.162 53.7873V57.0436C116.162 57.8786 116.123 58.4353 116.044 58.7165C115.967 58.999 115.829 59.2186 115.633 59.3781C115.439 59.5361 115.198 59.6466 114.91 59.7096C114.623 59.7725 114.191 59.8047 113.612 59.8047H110.562V50.5086Z" fill="white"/>
<path d="M119.836 52.099V54.1664C120.108 54.1664 120.298 54.1286 120.407 54.0531C120.516 53.9803 120.571 53.7383 120.571 53.3285V52.8166C120.571 52.5228 120.518 52.3284 120.413 52.2375C120.308 52.1452 120.115 52.099 119.836 52.099ZM117.418 50.5086H119.13C120.271 50.5086 121.042 50.5534 121.446 50.6415C121.849 50.7296 122.179 50.9548 122.434 51.3143C122.69 51.678 122.816 52.2543 122.816 53.0474C122.816 53.7691 122.726 54.2559 122.546 54.5048C122.367 54.7538 122.011 54.9035 121.484 54.9524C121.964 55.0727 122.284 55.2308 122.449 55.4294C122.613 55.628 122.716 55.8113 122.757 55.9777C122.796 56.1456 122.816 56.603 122.816 57.3541V59.8047H120.571V56.7163C120.571 56.2183 120.532 55.9106 120.453 55.7917C120.375 55.6728 120.168 55.6141 119.836 55.6141V59.8047H117.418V50.5086Z" fill="white"/>
<path d="M126.988 56.4855C126.868 55.4322 126.743 54.13 126.62 52.5802C126.374 54.3608 126.22 55.6616 126.156 56.4855H126.988ZM128.271 50.5086L129.653 59.8047H127.183L127.052 58.1332H126.188L126.041 59.8047H123.543L124.775 50.5086H128.271Z" fill="white"/>
<path d="M135.537 53.3302H133.293V52.6406C133.293 52.3189 133.263 52.1147 133.205 52.0266C133.149 51.9385 133.054 51.8951 132.92 51.8951C132.772 51.8951 132.663 51.9538 132.589 52.0727C132.514 52.1916 132.477 52.3707 132.477 52.6127C132.477 52.9232 132.519 53.1568 132.602 53.3134C132.684 53.4715 132.91 53.6603 133.286 53.8827C134.362 54.5205 135.041 55.0451 135.32 55.4549C135.599 55.8647 135.738 56.5235 135.738 57.4355C135.738 58.0971 135.66 58.5853 135.506 58.8986C135.35 59.2133 135.05 59.4763 134.607 59.6889C134.163 59.9015 133.645 60.0078 133.057 60.0078C132.409 60.0078 131.858 59.8861 131.4 59.6399C130.944 59.3952 130.643 59.0832 130.5 58.7042C130.36 58.3251 130.289 57.788 130.289 57.09V56.4816H132.534V57.6146C132.534 57.9628 132.566 58.1852 132.629 58.286C132.692 58.3839 132.804 58.4342 132.965 58.4342C133.126 58.4342 133.245 58.3713 133.323 58.2454C133.403 58.1181 133.442 57.9307 133.442 57.6817C133.442 57.1348 133.366 56.7767 133.218 56.6089C133.064 56.4396 132.688 56.1585 132.086 55.764C131.486 55.3668 131.088 55.0772 130.893 54.8968C130.697 54.7178 130.535 54.4674 130.406 54.1513C130.278 53.8324 130.215 53.4267 130.215 52.9344C130.215 52.221 130.306 51.7007 130.488 51.372C130.669 51.0419 130.962 50.7859 131.369 50.5999C131.774 50.4138 132.264 50.3215 132.837 50.3215C133.468 50.3215 134 50.4222 134.443 50.625C134.885 50.8279 135.178 51.0838 135.322 51.3915C135.466 51.7007 135.537 52.2238 135.537 52.9623V53.3302Z" fill="white"/>
</g>
<defs>
<clipPath id="clip0_2265_920">
<rect width="136" height="60" fill="white"/>
</clipPath>
</defs>
</svg>
